HIERARCHY
ROOT Hips
{
	OFFSET 0.00000 0.00000 0.00000
	CHANNELS 6 Xposition Yposition Zposition Yrotation Zrotation Xrotation 
	JOINT Lumbar
	{
		OFFSET 0 0 0
		CHANNELS 3 Zrotation Xrotation Yrotation
		JOINT Neck
		{
			OFFSET 0.00 0.2701 0.00
			CHANNELS 3 Zrotation Xrotation Yrotation
			End Site
			{
				OFFSET 0.00 0.1379 0.00
			}
		}
		JOINT RightShoulder
		{
			OFFSET 0.0119 0.2289 0.1181
			CHANNELS 3 Zrotation Xrotation Yrotation
			JOINT RightElbow
			{
				OFFSET 0.00 -0.1475 0.00
				CHANNELS 2 Zrotation Yrotation
				JOINT RightWrist
				{
					OFFSET 0.00 -0.1605 0.00
					CHANNELS 2 Zrotation Xrotation
					End Site
					{
						OFFSET 0.0040 -0.1068 0.0006
					}
				}
			}
		}
		JOINT LeftShoulder
		{
			OFFSET 0.0119 0.2289 -0.1181
			CHANNELS 3 Zrotation Xrotation Yrotation
			JOINT LeftElbow
			{
				OFFSET 0.00 -0.1475 0.00
				CHANNELS 2 Zrotation Yrotation
				JOINT LeftWrist
				{
					OFFSET 0.00 -0.1605 0.00
					CHANNELS 2 Zrotation Xrotation
					End Site
					{
						OFFSET 0.0040 -0.1068 -0.0006
					}
				}
			}
		}
	}
	JOINT RightHip
	{
		OFFSET 0.0316 -0.0424 0.0458
		CHANNELS 3 Zrotation Xrotation Yrotation
		JOINT RightKnee
		{
			OFFSET 0.00 -0.2438 0.00
			CHANNELS 1 Zrotation
			JOINT RightAnkle
			{
				OFFSET 0.00 -0.2449 0.00
				CHANNELS 3 Zrotation Xrotation Yrotation
				End Site
				{
					OFFSET 0.1237 -0.0542 0.0051
				}
			}
		}
	}
	JOINT LeftHip
	{
		OFFSET 0.0316 -0.0424 -0.0458
		CHANNELS 3 Zrotation Xrotation Yrotation
		JOINT LeftKnee
		{
			OFFSET 0.00 -0.2438 0.00
			CHANNELS 1 Zrotation
			JOINT LeftAnkle
			{
				OFFSET 0.00 -0.2449 0.00
				CHANNELS 3 Zrotation Xrotation Yrotation
				End Site
				{
					OFFSET 0.1237 -0.0542 -0.0051
				}
			}
		}
	}
}
MOTION
Frames: 26
Frame Time: 0.02
0 0.57926 -0 181.70434 0 -3.57151 1.89805 2.70438 -2.02467 -25.78082 3.77603 2.12309 -35.26724 -75.06136 -88.0563 23.62077 76.14522 -23.11776 -2.40575 -15.37103 73.9029 69.5025 23.76196 -75.53081 -34.07228 3.05201 -3.26659 4.44354 7.76632 -7.60165 -2.30677 -3.69151 -6.84376 -2.10484 2.81827 0.80366 -7.26233 4.20957 2.05113 -0.44394
-8e-05 0.57926 4e-05 181.69392 0 -3.5714 1.90452 2.70899 -2.02004 -25.81352 3.76198 2.11865 -35.04364 -74.94941 -88.44932 23.77466 76.07153 -22.50813 -2.45027 -15.24535 73.89815 69.40545 23.7535 -75.51167 -34.06552 3.05177 -3.27596 4.43932 7.77664 -7.59609 -2.30619 -3.68968 -6.8456 -2.1123 2.81388 0.81325 -7.26612 4.20461 2.0505 -0.44816
-0.00016 0.57925 8e-05 181.68358 0 -3.57129 1.91088 2.7136 -2.01547 -25.84584 3.748 2.11416 -34.82131 -74.838 -88.83768 23.92756 75.99893 -21.90571 -2.49463 -15.12112 73.89296 69.30974 23.74557 -75.49289 -34.05875 3.05152 -3.28526 4.43509 7.78697 -7.59065 -2.30555 -3.68789 -6.8475 -2.11974 2.80946 0.82274 -7.26991 4.19981 2.04987 -0.45228
-0.00024 0.57924 0.00012 181.67326 0 -3.57115 1.91698 2.71826 -2.01108 -25.87714 3.73429 2.10972 -34.60494 -74.72929 -89.20808 24.07513 75.9275 -21.33222 -2.53846 -15.00146 73.88709 69.21712 23.73758 -75.47542 -34.05164 3.0513 -3.29429 4.4308 7.79757 -7.58575 -2.30464 -3.68624 -6.8496 -2.12716 2.80494 0.83202 -7.27371 4.19567 2.04923 -0.45591
-0.00032 0.57924 0.00016 181.66259 0 -3.57114 1.92458 2.72265 -2.00572 -25.91403 3.71929 2.10534 -34.36067 -74.60824 -89.66986 24.24751 75.84689 -20.61267 -2.58473 -14.85755 73.88623 69.10653 23.72734 -75.45107 -34.04608 3.05101 -3.30462 4.42685 7.80695 -7.57814 -2.30509 -3.68382 -6.85058 -2.13467 2.80101 0.84255 -7.27747 4.18812 2.04863 -0.462
-0.00039 0.57923 0.00021 181.65284 0 -3.57086 1.92891 2.72763 -2.00243 -25.93893 3.70698 2.1006 -34.17315 -74.51208 -89.94047 24.36957 75.78781 -20.19787 -2.62601 -14.76508 73.87381 69.03513 23.72363 -75.44125 -34.03741 3.05081 -3.31228 4.42218 7.81875 -7.57617 -2.3027 -3.68303 -6.85394 -2.14199 2.79583 0.85033 -7.28129 4.18772 2.04796 -0.46297
-0.00047 0.57922 0.00028 181.6441 0 -3.56982 1.92467 2.73431 -2.00501 -25.93124 3.70247 2.09674 -34.16391 -74.4959 -89.64783 24.33139 75.77165 -20.68722 -2.65249 -14.81731 73.83534 69.06529 23.72473 -75.47327 -34.01777 3.05147 -3.31184 4.41545 7.83893 -7.59113 -2.29187 -3.68688 -6.86397 -2.14906 2.78702 0.85126 -7.28554 4.20846 2.04716 -0.44852
-0.00055 0.57921 0.00037 181.63655 0 -3.56853 1.91701 2.7416 -2.00971 -25.9113 3.70059 2.09216 -34.20788 -74.50284 -89.1673 24.24631 75.78021 -21.47438 -2.67418 -14.921 73.78361 69.13649 23.7355 -75.51967 -33.99506 3.05214 -3.30883 4.40801 7.86125 -7.61156 -2.27826 -3.69234 -6.87633 -2.15592 2.77697 0.84929 -7.28979 4.23618 2.04628 -0.42909
-0.00063 0.5792 0.00046 181.62949 0 -3.56739 1.91061 2.74857 -2.0133 -25.89667 3.69726 2.08665 -34.21359 -74.49178 -88.79668 24.1964 75.78827 -22.0838 -2.69874 -14.99953 73.73469 69.19301 23.74962 -75.55841 -33.97574 3.05238 -3.30748 4.40094 7.88149 -7.62861 -2.2663 -3.69696 -6.88759 -2.16271 2.7676 0.84816 -7.29387 4.2598 2.04539 -0.41278
-0.00071 0.57919 0.00054 181.61822 0 -3.56612 1.90553 2.7557 -2.01736 -25.88329 3.69505 2.08643 -34.27915 -74.51206 -88.32697 24.08782 75.75123 -22.86758 -2.72025 -15.08567 73.70133 69.23186 23.7284 -75.60192 -33.94947 3.05432 -3.30411 4.39368 7.90643 -7.64937 -2.25276 -3.70202 -6.89917 -2.17017 2.75778 0.849 -7.29867 4.28729 2.0447 -0.39297
-0.00078 0.57919 0.00062 181.61583 0 -3.56504 1.8968 2.76265 -2.02114 -25.8642 3.69111 2.07504 -34.23217 -74.47291 -88.01353 24.09057 75.81373 -23.36466 -2.7471 -15.16804 73.62992 69.31839 23.7864 -75.63887 -33.93513 3.05284 -3.30427 4.38662 7.92204 -7.66379 -2.2418 -3.70656 -6.91047 -2.1762 2.74857 0.84511 -7.30197 4.30843 2.04359 -0.37913
-0.00083 0.57918 0.00071 181.63905 0 -3.56447 1.87974 2.76902 -2.02179 -25.83416 3.68188 2.03267 -33.86512 -74.26024 -88.22516 24.41177 76.14771 -22.94684 -2.78888 -15.22805 73.47738 69.51657 24.03299 -75.65471 -33.96981 3.04092 -3.31549 4.38052 7.91185 -7.65865 -2.23891 -3.70937 -6.92202 -2.17807 2.7416 0.82836 -7.30116 4.31005 2.04112 -0.38406
-0.00087 0.57918 0.00079 181.6709 0 -3.56409 1.85896 2.7752 -2.02242 -25.7985 3.67081 1.97909 -33.38194 -73.98715 -88.59208 24.84803 76.58065 -22.23884 -2.83637 -15.28199 73.28271 69.76281 24.36448 -75.66347 -34.01352 3.02572 -3.33025 4.37459 7.89215 -7.64707 -2.23866 -3.71158 -6.93295 -2.17853 2.73524 0.80708 -7.29882 4.3051 2.03827 -0.39501
-0.00092 0.57918 0.00087 181.69786 0 -3.56365 1.8393 2.78145 -2.02423 -25.76416 3.66045 1.93086 -32.94991 -73.74487 -88.85611 25.23022 76.96639 -21.69774 -2.88191 -15.33876 73.09428 69.99408 24.67491 -75.67498 -34.04331 3.01271 -3.34295 4.36843 7.87644 -7.63895 -2.23703 -3.71401 -6.94307 -2.17979 2.72846 0.78818 -7.29712 4.30335 2.03577 -0.40245
-0.00096 0.57918 0.00095 181.7289 0 -3.56311 1.82195 2.78775 -2.02112 -25.73446 3.65061 1.88165 -32.52797 -73.49142 -89.24822 25.61285 77.36186 -21.02241 -2.92459 -15.39858 72.96164 70.19933 24.91037 -75.68851 -34.11532 2.99686 -3.35739 4.36291 7.86204 -7.62884 -2.23606 -3.71675 -6.95773 -2.18038 2.72227 0.76768 -7.29563 4.30096 2.03258 -0.4128
-0.001 0.57918 0.00104 181.75351 0 -3.56281 1.79892 2.79396 -2.02832 -25.69412 3.63935 1.83168 -32.05504 -73.24385 -89.41517 26.02931 77.76092 -20.54979 -2.97462 -15.44799 72.70078 70.46772 25.32372 -75.69651 -34.1005 2.98601 -3.36915 4.35608 7.84283 -7.62117 -2.2344 -3.71868 -6.96296 -2.18203 2.71498 0.74966 -7.29338 4.29823 2.03068 -0.4188
-0.00104 0.57918 0.00115 181.75789 0 -3.56329 1.76153 2.79944 -2.06328 -25.62414 3.62347 1.78357 -31.48309 -73.04973 -88.9023 26.45467 78.13931 -20.74289 -3.04366 -15.4862 72.11387 70.91454 26.19392 -75.68651 -33.85297 2.99098 -3.37216 4.34586 7.81079 -7.6226 -2.22995 -3.7186 -6.94037 -2.18715 2.70476 0.73797 -7.28927 4.29636 2.03301 -0.40956
-0.00107 0.57918 0.00126 181.75556 0 -3.56398 1.71851 2.80493 -2.10874 -25.54405 3.60643 1.73486 -30.86054 -72.85872 -88.16131 26.92192 78.51861 -21.14287 -3.11987 -15.51071 71.39569 71.41966 27.24319 -75.67214 -33.51622 3.00093 -3.37245 4.33428 7.77454 -7.62655 -2.22477 -3.71771 -6.90864 -2.19336 2.69337 0.72921 -7.28449 4.29433 2.03658 -0.39607
-0.0011 0.57917 0.00138 181.75651 0 -3.56445 1.67782 2.81075 -2.14984 -25.46964 3.5907 1.68565 -30.25277 -72.6522 -87.53999 27.40588 78.90201 -21.42253 -3.19279 -15.53091 70.72666 71.88805 28.21876 -75.66236 -33.21399 3.00774 -3.37433 4.32314 7.74144 -7.62876 -2.22011 -3.71716 -6.88238 -2.19896 2.68236 0.7202 -7.28009 4.29221 2.03922 -0.38575
-0.00114 0.57917 0.00149 181.75677 0 -3.56543 1.63794 2.81515 -2.18923 -25.39025 3.57166 1.63934 -29.67781 -72.50548 -86.85999 27.73863 79.27128 -21.79959 -3.26619 -15.59608 70.10239 72.40312 29.16296 -75.64052 -32.93669 3.01791 -3.37487 4.3127 7.70286 -7.63315 -2.2148 -3.71673 -6.85064 -2.20499 2.67201 0.70657 -7.27526 4.29047 2.04332 -0.37052
-0.00117 0.57917 0.00161 181.75676 0 -3.56541 1.5951 2.8225 -2.23468 -25.31918 3.55919 1.58696 -29.02129 -72.23274 -86.24159 28.40015 79.66707 -22.03133 -3.34004 -15.56357 69.3519 72.83195 30.21632 -75.64387 -32.58722 3.02261 -3.37745 4.30052 7.67471 -7.6338 -2.21055 -3.71586 -6.82804 -2.21039 2.66002 0.70317 -7.27126 4.28809 2.04474 -0.36428
-0.0012 0.57917 0.00177 181.75756 0 -3.56258 1.54545 2.83829 -2.29423 -25.27114 3.56566 1.51821 -28.17564 -71.63605 -85.8861 29.91397 80.15218 -21.77231 -3.41511 -15.27125 68.30493 73.02535 31.50633 -75.71056 -32.05201 3.00843 -3.38673 4.28348 7.67737 -7.62267 -2.21014 -3.71389 -6.8338 -2.21397 2.64343 0.72881 -7.26934 4.28319 2.03815 -0.38516
-0.00124 0.57917 0.00194 181.75829 0 -3.55875 1.49303 2.85701 -2.3595 -25.23229 3.57869 1.44344 -27.24601 -70.90754 -85.59247 31.7655 80.66126 -21.36875 -3.49015 -14.87966 67.13172 73.12536 32.90348 -75.80505 -31.44941 2.9892 -3.39804 4.26481 7.69053 -7.60787 -2.21067 -3.71153 -6.8489 -2.21684 2.62528 0.76438 -7.26837 4.27784 2.02889 -0.41494
-0.00127 0.57916 0.0021 181.75908 0 -3.55541 1.44196 2.87424 -2.42227 -25.19088 3.58843 1.37124 -26.33957 -70.22413 -85.24592 33.49108 81.14704 -21.0581 -3.56393 -14.52952 66.00375 73.25826 34.26491 -75.89049 -30.88218 2.97384 -3.40815 4.24714 7.69828 -7.59536 -2.21028 -3.70941 -6.85918 -2.21992 2.60804 0.79446 -7.26725 4.27326 2.02107 -0.43982
-0.0013 0.57916 0.00227 181.75956 0 -3.55192 1.39041 2.89214 -2.4852 -25.14235 3.59951 1.2995 -25.49359 -69.60558 -84.99762 35.10041 81.6817 -20.63895 -3.64293 -14.1953 64.92335 73.43839 35.57792 -75.95693 -30.28907 2.95153 -3.41937 4.22833 7.70858 -7.58035 -2.21195 -3.70699 -6.87164 -2.22352 2.58989 0.82881 -7.26492 4.26629 2.01234 -0.46829
-0.00133 0.57916 0.00242 181.7607 0 -3.54852 1.33914 2.90932 -2.54876 -25.1109 3.60927 1.22566 -24.50354 -68.81773 -84.5606 37.03348 82.1247 -20.40956 -3.71147 -13.80336 63.71439 73.49114 37.01482 -76.07428 -29.73846 2.94301 -3.42876 4.21153 7.71611 -7.56961 -2.20956 -3.70513 -6.88179 -2.22583 2.57328 0.85652 -7.26534 4.26419 2.00487 -0.49133
